<svg width="82" height="88" viewBox="0 0 82 88" fill="none" xmlns="http://www.w3.org/2000/svg">
<rect x="1" y="1" width="79.1511" height="86" rx="7" fill="#38474F"/>
<rect x="1" y="1" width="79.1511" height="86" rx="7" stroke="white" stroke-width="2"/>
<path d="M73.1375 27.6397C73.1284 27.4809 73.1057 27.3267 73.0785 27.1725C73.0422 27.0001 72.9968 26.8323 72.9379 26.6645C72.9107 26.5874 72.8789 26.5057 72.8472 26.4286C72.8109 26.347 72.7746 26.2608 72.7338 26.1837C72.6975 26.1157 72.6612 26.0476 72.6204 25.9796C72.5796 25.907 72.5342 25.8344 72.4843 25.7664C72.448 25.7074 72.4117 25.653 72.3664 25.5986C72.3165 25.5351 72.2666 25.4671 72.2122 25.4081C72.1623 25.3491 72.1124 25.2992 72.058 25.2448C71.9219 25.0951 71.7631 24.9591 71.5953 24.8321C71.5318 24.7867 71.4683 24.7413 71.4003 24.7005C71.3277 24.6506 71.2551 24.6053 71.178 24.5644L71.0193 24.4783L42.4579 8.48986C41.2876 7.83671 39.8634 7.83671 38.6932 8.48986L9.97304 24.5644H9.9685C9.89593 24.6098 9.82336 24.6506 9.75079 24.7005C9.68275 24.7413 9.61925 24.7867 9.55575 24.8321C9.38793 24.9591 9.23372 25.0951 9.09311 25.2448C9.03868 25.2992 8.98879 25.3491 8.93889 25.4081C8.88446 25.4671 8.83457 25.5351 8.78468 25.5986C8.74386 25.653 8.70304 25.7074 8.66675 25.7664C8.61686 25.8344 8.5715 25.907 8.53068 25.9796C8.48986 26.0476 8.45357 26.1157 8.41729 26.1837C8.37646 26.2608 8.34018 26.347 8.30389 26.4286C8.27214 26.5057 8.24039 26.5874 8.21318 26.6645C8.15421 26.8323 8.10886 27.0001 8.07257 27.1725C8.04536 27.3267 8.02268 27.4809 8.01361 27.6397C8.00454 27.7349 8 27.8302 8 27.9254V59.7888C8 61.1768 8.74386 62.4558 9.95036 63.1407L38.6388 79.4784L38.6705 79.4965C38.7431 79.5374 38.8202 79.5782 38.8928 79.6145C39.0379 79.6825 39.1876 79.746 39.3373 79.7959C39.4461 79.8322 39.555 79.8639 39.6639 79.8866C39.7228 79.9047 39.7818 79.9184 39.8407 79.9274C40.0811 79.9773 40.3306 80 40.5755 80C40.8205 80 41.0699 79.9773 41.3103 79.9274C41.3874 79.9138 41.46 79.8957 41.5371 79.8775C41.6278 79.8549 41.7231 79.8276 41.8138 79.7959C41.9635 79.746 42.1131 79.687 42.2583 79.6145C42.3445 79.5736 42.4306 79.5283 42.5123 79.4784L71.2052 63.1407C72.4072 62.4558 73.1511 61.1768 73.1511 59.7888V27.9254C73.1511 27.8302 73.1465 27.7349 73.1375 27.6397ZM36.7202 69.5134L15.7107 57.5482V34.5022L36.7202 46.2588V69.5134ZM40.5755 39.5822L36.82 37.4822L19.752 27.9254L40.5755 16.2732L61.4035 27.9254L40.5755 39.5822ZM65.4403 57.5482L44.4309 69.5134V46.2588L65.4403 34.5022V57.5482Z" fill="white"/>
<path d="M36.7201 46.2588V69.5134L15.7107 57.5482V34.5022L36.7201 46.2588Z" fill="#788F9A"/>
<path d="M65.4404 34.5022V57.5482L44.4309 69.5134V46.2588L65.4404 34.5022Z" fill="#788F9A"/>
<path d="M61.4037 27.9255L40.5757 39.5823L36.8201 37.4822L19.7522 27.9255L40.5757 16.2732L61.4037 27.9255Z" fill="#EB6424"/>
</svg>
