<svg id="Grupo_57" data-name="Grupo 57" xmlns="http://www.w3.org/2000/svg" xmlns:xlink="http://www.w3.org/1999/xlink" width="46" height="46" viewBox="0 0 46 46">
  <defs>
    <clipPath id="clip-path">
      <rect id="Rectángulo_54" data-name="Rectángulo 54" width="46" height="46" fill="none"/>
    </clipPath>
  </defs>
  <g id="Grupo_56" data-name="Grupo 56" clip-path="url(#clip-path)">
    <path id="Trazado_11" data-name="Trazado 11" d="M43.783,46.692H4.909A2.909,2.909,0,0,1,2,43.783V4.909A2.909,2.909,0,0,1,4.909,2H43.783a2.909,2.909,0,0,1,2.909,2.909V43.783a2.909,2.909,0,0,1-2.909,2.909" transform="translate(-1.346 -1.346)" fill="#38474f"/>
    <path id="Trazado_12" data-name="Trazado 12" d="M42.437,46H3.563A3.567,3.567,0,0,1,0,42.437V3.563A3.567,3.567,0,0,1,3.563,0H42.437A3.567,3.567,0,0,1,46,3.563V42.437A3.567,3.567,0,0,1,42.437,46M3.563,1.308A2.257,2.257,0,0,0,1.308,3.563V42.437a2.257,2.257,0,0,0,2.255,2.255H42.437a2.258,2.258,0,0,0,2.255-2.255V3.563a2.258,2.258,0,0,0-2.255-2.255Z" fill="#fff"/>
    <path id="Trazado_13" data-name="Trazado 13" d="M52.343,22.845,38.17,14.662a1.926,1.926,0,0,0-1.924,0L22.072,22.845a1.924,1.924,0,0,0-.962,1.667V40.878a1.925,1.925,0,0,0,.962,1.667l14.173,8.183a1.923,1.923,0,0,0,1.924,0l14.173-8.183a1.924,1.924,0,0,0,.962-1.667V24.512a1.924,1.924,0,0,0-.962-1.667" transform="translate(-14.208 -9.695)" fill="#fff"/>
    <path id="Trazado_14" data-name="Trazado 14" d="M86.882,66.842,75.919,73.074l.023-12.187,10.94-6.232Z" transform="translate(-51.096 -36.785)" fill="#79909b"/>
    <path id="Trazado_15" data-name="Trazado 15" d="M30.636,66.842,41.6,73.074l-.023-12.187-10.94-6.232Z" transform="translate(-20.619 -36.785)" fill="#79909b"/>
    <path id="Trazado_16" data-name="Trazado 16" d="M47.823,38.158,37.072,31.972l10.751-6.116,10.744,6.093Z" transform="translate(-24.95 -17.401)" fill="#ff6215"/>
  </g>
</svg>
