<?xml version="1.0" encoding="UTF-8"?>
<svg id="Capa_1" data-name="Capa 1" xmlns="http://www.w3.org/2000/svg" viewBox="0 0 516.77 156.05">
  <defs>
    <style>
      .cls-1 {
        fill: #eb6424;
      }

      .cls-2 {
        fill: #788e99;
      }
    </style>
  </defs>
  <path class="cls-1" d="M83.7,156.05h-27.36v-50.04h-.54c-3.6,10.98-9.9,14.94-23.94,14.94-12.6,0-20.88-3.06-25.56-9.54-5.04-7.02-6.3-14.22-6.3-37.62,0-18.9,1.8-25.74,8.64-32.04,5.04-4.68,11.88-6.66,22.32-6.66,14.76,0,19.98,3.24,24.48,15.12h.9v-14.22h27.36v120.06ZM27.54,73.62c0,23.58,1.44,26.46,14.04,26.46,11.7,0,14.58-3.78,14.58-19.44,0-21.42-1.98-24.84-14.4-24.84-11.34,0-14.22,3.6-14.22,17.82Z"/>
  <path class="cls-2" d="M211.67,0l-35.1,120.06h-49.86L92.7,0h32.58l13.32,46.26c2.16,7.74,4.32,15.48,6.48,23.04,2.16,7.74,4.14,15.48,6.12,23.22h.9c3.96-14.94,8.28-30.42,12.78-46.26L178.38,0h33.3Z"/>
  <path class="cls-2" d="M248.94,20.34h-27.36V0h27.36v20.34ZM248.94,120.06h-27.36V36h27.36v84.06Z"/>
  <path class="cls-2" d="M315.53,60.12l-.36-1.26c-1.26-5.04-3.06-5.94-12.78-5.94-6.48,0-8.28.18-9.9,1.26-1.62.9-2.7,3.42-2.7,5.76,0,3.6,1.44,5.76,4.32,6.48q1.44.36,16.74,1.08c16.02.72,21.6,1.98,26.46,5.22,5.22,3.6,7.92,10.26,7.92,19.44,0,9.72-2.88,16.74-8.64,21.42-6.84,5.58-15.3,7.38-34.02,7.38-21.78,0-31.32-2.88-36.18-10.98-2.34-4.14-3.06-7.92-3.24-16.2h27.9v1.44c0,6.66,2.16,7.92,13.32,7.92s14.4-1.44,14.4-7.38c0-6.48-2.52-8.1-11.88-8.28-16.74-.18-23.22-.72-29.16-2.7-10.08-3.24-14.22-10.26-14.22-23.4,0-10.44,3.06-17.82,9-21.42,5.76-3.6,14.58-4.86,31.5-4.86,29.34,0,37.26,5.4,37.44,25.02h-25.92Z"/>
  <path class="cls-2" d="M421.91,55.8h-31.86v34.02c0,9,1.08,11.16,6.12,11.16,6.3,0,7.56-2.52,7.56-15.48h21.96l-.18,3.42c0,12.78-.36,15.12-1.98,19.26-3.96,9.54-11.7,12.78-31.68,12.78-14.4,0-21.78-2.88-26.28-10.08-2.16-3.6-2.88-7.2-2.88-15.66v-39.42h-10.26v-19.8h10.26v-17.64h27.36v17.64h31.86v19.8Z"/>
  <path class="cls-2" d="M438.29,61.02c.18-10.08,1.08-13.68,4.14-17.64,5.22-6.12,13.32-8.28,32.94-8.28,23.58,0,33.84,3.6,38.52,13.5,1.62,3.06,2.88,11.16,2.88,16.92v54.54h-27.36l.9-13.68h-.72c-3.78,11.16-9.54,14.58-25.38,14.58-21.6,0-29.34-7.02-29.34-26.64,0-18.18,8.82-25.56,30.06-25.56,16.02,0,20.7,1.98,23.94,10.44h.54v-16.38c0-8.1-3.42-10.98-12.78-10.98-8.1,0-10.26,1.8-10.8,9.18h-27.54ZM462.41,93.96c0,7.56,2.7,9.18,14.76,9.18,9.54,0,12.06-2.16,12.06-9.72,0-6.3-3.06-8.1-14.04-8.1-9.54,0-12.78,2.16-12.78,8.64Z"/>
</svg>