<?xml version="1.0" encoding="UTF-8"?>
<svg id="Capa_1" data-name="Capa 1" xmlns="http://www.w3.org/2000/svg" viewBox="0 0 798.16 140.83">
  <defs>
    <style>
      .cls-1 {
        fill: #ea6424;
      }

      .cls-2 {
        fill: #fff;
      }
    </style>
  </defs>
  <path class="cls-1" d="M75.53,140.83h-24.69v-45.16h-.49c-3.25,9.91-8.93,13.48-21.6,13.48-11.37,0-18.84-2.76-23.07-8.61-4.55-6.34-5.69-12.83-5.69-33.95,0-17.06,1.62-23.23,7.8-28.91,4.55-4.22,10.72-6.01,20.14-6.01,13.32,0,18.03,2.92,22.09,13.64h.81v-12.83h24.69v108.35ZM24.85,66.44c0,21.28,1.3,23.88,12.67,23.88,10.56,0,13.16-3.41,13.16-17.54,0-19.33-1.79-22.42-12.99-22.42-10.23,0-12.83,3.25-12.83,16.08Z"/>
  <path class="cls-2" d="M191.02,0l-31.67,108.34h-44.99L83.65,0h29.4l12.02,41.75c1.95,6.98,3.9,13.97,5.85,20.79,1.95,6.98,3.74,13.97,5.52,20.95h.81c3.57-13.48,7.47-27.45,11.53-41.75L160.97,0h30.05Z"/>
  <path class="cls-2" d="M224.64,18.36h-24.69V0h24.69v18.36ZM224.64,108.34h-24.69V32.49h24.69v75.86Z"/>
  <path class="cls-2" d="M284.73,54.25l-.33-1.14c-1.14-4.55-2.76-5.36-11.53-5.36-5.85,0-7.47.16-8.93,1.14-1.46.81-2.44,3.09-2.44,5.2,0,3.25,1.3,5.2,3.9,5.85q1.3.32,15.11.97c14.46.65,19.49,1.79,23.88,4.71,4.71,3.25,7.15,9.26,7.15,17.54,0,8.77-2.6,15.11-7.8,19.33-6.17,5.03-13.81,6.66-30.7,6.66-19.66,0-28.26-2.6-32.65-9.91-2.11-3.74-2.76-7.15-2.92-14.62h25.18v1.3c0,6.01,1.95,7.15,12.02,7.15s12.99-1.3,12.99-6.66c0-5.85-2.27-7.31-10.72-7.47-15.11-.16-20.95-.65-26.32-2.44-9.1-2.92-12.83-9.26-12.83-21.12,0-9.42,2.76-16.08,8.12-19.33,5.2-3.25,13.16-4.39,28.43-4.39,26.48,0,33.62,4.87,33.79,22.58h-23.39Z"/>
  <path class="cls-2" d="M380.73,50.36h-28.75v30.7c0,8.12.98,10.07,5.52,10.07,5.68,0,6.82-2.27,6.82-13.97h19.82l-.16,3.09c0,11.53-.33,13.64-1.79,17.38-3.57,8.61-10.56,11.53-28.59,11.53-12.99,0-19.65-2.6-23.72-9.1-1.95-3.25-2.6-6.5-2.6-14.13v-35.57h-9.26v-17.87h9.26v-15.92h24.69v15.92h28.75v17.87Z"/>
  <path class="cls-2" d="M395.5,55.07c.16-9.1.97-12.34,3.74-15.92,4.71-5.52,12.02-7.47,29.72-7.47,21.28,0,30.54,3.25,34.76,12.18,1.46,2.76,2.6,10.07,2.6,15.27v49.22h-24.69l.81-12.35h-.65c-3.41,10.07-8.61,13.16-22.9,13.16-19.49,0-26.48-6.34-26.48-24.04,0-16.41,7.96-23.07,27.13-23.07,14.46,0,18.68,1.79,21.6,9.42h.49v-14.78c0-7.31-3.09-9.91-11.53-9.91-7.31,0-9.26,1.62-9.75,8.28h-24.85ZM417.27,84.79c0,6.82,2.44,8.28,13.32,8.28,8.61,0,10.88-1.95,10.88-8.77,0-5.68-2.76-7.31-12.67-7.31-8.61,0-11.53,1.95-11.53,7.8Z"/>
  <path class="cls-2" d="M611.54,108.34h-41.75l-7.47-33.95c-2.6-11.21-4.87-22.58-7.15-33.95h-1.14c-.33,1.63-1.14,5.36-1.79,8.45-.98,4.87-1.62,8.12-1.79,8.61-1.3,5.68-2.6,11.21-4.06,16.89l-8.12,33.95h-41.26L473.79,0h29.08l8.12,41.75,3.9,20.95c1.3,6.82,2.44,13.64,3.57,20.79h1.14l2.27-10.4,2.44-10.4,5.2-20.95,10.4-41.75h29.89l10.07,41.75c3.25,13.97,5.36,22.9,6.17,27.13,1.14,4.87,2.11,9.58,3.25,14.62h.98c2.44-13.81,5.03-27.61,7.96-41.75l8.45-41.75h29.08l-24.2,108.34Z"/>
  <path class="cls-2" d="M709.96,83.01v1.46c0,6.5-1.46,12.02-4.39,15.92-4.55,6.34-12.67,8.77-28.59,8.77-17.71,0-26.64-2.27-32.65-7.96-5.52-5.52-7.31-13.64-7.31-32.65,0-16.41,2.11-24.37,7.96-29.56,5.68-5.2,14.13-7.31,29.08-7.31,27.78,0,35.9,8.12,35.9,35.9v7.15h-48.57c-.16,1.3-.16,2.6-.16,3.09,0,10.88,2.92,14.13,13,14.13,8.93,0,11.53-1.95,11.53-8.93h24.2ZM686.25,61.08c-.16-1.14-.16-2.11-.16-2.44,0-3.9-.33-4.87-1.3-6.33-1.79-2.44-4.22-3.09-11.53-3.09-6.82,0-9.26.97-10.72,4.22-.65,1.62-.81,1.95-.97,7.64h24.69Z"/>
  <path class="cls-2" d="M722.46,0h24.69v44.35h.49c4.22-9.42,9.91-12.67,22.74-12.67,9.91,0,17.05,2.27,21.12,6.66,5.36,5.68,6.66,11.21,6.66,29.24,0,20.95-.65,25.02-4.71,31.68-4.06,6.66-11.86,9.91-24.2,9.91-13.32,0-19.01-3.9-22.58-14.94h-.49l.97,14.13h-24.69V0ZM747.32,67.9c0,19.49,1.62,22.42,12.67,22.42,11.7,0,13.32-2.6,13.32-19.98,0-11.7-.65-15.11-3.41-17.38-1.95-1.46-4.87-2.27-8.77-2.27-10.88,0-13.81,3.74-13.81,17.22Z"/>
</svg>